<?xml version="1.0" standalone="no"?>
<!DOCTYPE svg PUBLIC "-//W3C//DTD SVG 20010904//EN"
 "http://www.w3.org/TR/2001/REC-SVG-20010904/DTD/svg10.dtd">
<svg version="1.0" xmlns="http://www.w3.org/2000/svg"
 width="1024.000000pt" height="1024.000000pt" viewBox="0 0 1024.000000 1024.000000"
 preserveAspectRatio="xMidYMid meet">

<g transform="translate(0.000000,1024.000000) scale(0.100000,-0.100000)"
fill="#000000" stroke="none">
<path d="M5251 9249 c-164 -75 -377 -249 -513 -418 -300 -372 -498 -947 -498
-1445 1 -430 127 -759 386 -1007 66 -63 230 -179 253 -179 8 0 11 -118 11
-407 l-1 -408 -57 65 c-117 134 -240 255 -316 312 -104 78 -259 152 -366 177
-87 20 -250 37 -250 26 0 -3 103 -115 228 -248 375 -397 970 -1040 989 -1067
11 -15 8 -24 -18 -56 -17 -22 -32 -40 -33 -42 -3 -2 -42 38 -246 252 -58 61
-152 160 -210 221 -58 60 -202 214 -321 340 -288 306 -314 330 -379 349 -30 9
-70 16 -91 16 -104 0 -270 47 -396 113 -272 141 -450 422 -504 796 -23 166 -2
427 51 616 70 249 248 579 409 757 l54 59 22 -39 c42 -75 124 -277 144 -357
57 -233 54 -439 -10 -610 -19 -52 -37 -77 -121 -169 -57 -64 -59 -158 -3 -224
53 -63 152 -69 228 -15 93 67 186 246 230 442 31 139 30 402 -2 551 -82 388
-298 776 -611 1104 -71 73 -89 88 -107 82 -39 -13 -295 -289 -414 -446 -168
-223 -250 -352 -344 -545 -218 -444 -287 -863 -214 -1299 83 -492 395 -932
807 -1140 211 -106 409 -156 627 -157 l103 0 103 -112 c57 -61 154 -163 214
-227 123 -130 568 -608 631 -679 l42 -46 -52 -60 c-187 -220 -240 -267 -339
-304 -69 -25 -175 -28 -237 -6 -52 18 -126 19 -160 2 -37 -19 -70 -74 -70
-119 0 -56 22 -99 71 -141 41 -35 144 -77 190 -77 24 0 24 -5 -3 -43 -20 -29
-52 -66 -243 -282 -34 -38 -88 -101 -121 -140 -32 -38 -86 -101 -119 -140
-212 -242 -301 -396 -427 -734 -112 -302 -198 -406 -346 -419 -52 -4 -143 14
-139 28 1 4 -17 25 -40 48 -68 67 -87 118 -87 247 -1 97 2 117 25 173 34 79
84 145 130 171 20 12 42 28 49 36 7 8 23 15 36 15 20 0 24 -5 24 -32 1 -50 35
-115 72 -138 70 -42 165 -10 206 70 47 93 18 216 -71 303 -159 154 -430 151
-652 -8 -135 -96 -262 -269 -317 -431 -47 -142 -61 -242 -55 -399 6 -171 28
-260 97 -400 117 -238 322 -413 559 -477 119 -32 332 -30 466 5 254 68 480
224 676 469 97 121 133 183 280 478 128 255 189 358 297 502 105 138 413 498
427 498 2 0 6 -399 7 -887 l3 -888 23 -65 c64 -178 208 -294 383 -307 198 -16
373 107 443 310 21 61 21 75 26 936 l5 874 84 -94 c46 -52 107 -119 135 -149
263 -281 341 -394 540 -785 59 -115 130 -244 158 -285 213 -315 490 -524 806
-607 131 -35 346 -37 463 -5 387 105 649 474 649 911 0 191 -36 347 -115 501
-133 256 -374 420 -619 420 -209 0 -396 -155 -396 -329 0 -126 113 -214 215
-165 46 21 71 61 80 124 9 65 27 67 100 10 115 -89 164 -183 172 -330 6 -101
-19 -190 -71 -255 -18 -22 -35 -47 -38 -56 -8 -20 -80 -39 -150 -39 -107 0
-208 78 -281 217 -19 37 -67 148 -106 246 -151 378 -198 446 -651 942 -126
138 -247 274 -269 302 l-41 51 67 12 c153 26 253 107 253 205 0 67 -38 115
-106 135 -35 11 -51 9 -120 -10 -90 -25 -177 -28 -255 -10 -104 24 -172 73
-307 219 l-82 90 57 64 c343 381 755 835 875 964 l87 94 115 4 c434 15 743
140 1019 413 155 154 260 316 326 504 68 197 65 125 68 1273 4 1164 8 1101
-65 1150 -70 47 -175 25 -217 -46 -20 -33 -20 -57 -25 -1079 l-5 -1045 -23
-80 c-79 -281 -302 -542 -569 -667 -57 -27 -69 -29 -101 -20 -20 6 -82 13
-137 16 -59 3 -137 15 -191 30 -118 31 -204 40 -282 27 -106 -17 -141 -42
-301 -211 -81 -85 -160 -171 -176 -191 -39 -47 -187 -212 -534 -598 -563 -626
-807 -901 -926 -1046 -27 -33 -79 -94 -115 -135 -36 -41 -102 -118 -145 -170
-92 -109 -153 -170 -169 -170 -6 0 -18 11 -27 23 -16 22 -14 26 85 148 55 70
119 148 141 175 22 27 123 150 224 274 243 297 177 219 985 1149 379 436 478
546 720 809 93 101 166 185 163 188 -3 3 -54 1 -114 -6 -169 -18 -310 -73
-461 -180 -90 -63 -245 -216 -335 -328 l-67 -84 0 410 0 411 83 50 c315 190
507 516 557 943 19 162 8 430 -24 598 -129 674 -477 1207 -950 1455 -48 25
-94 45 -104 45 -9 -1 -46 -14 -81 -31z m195 -386 c180 -131 299 -283 440 -563
214 -426 284 -901 190 -1273 -55 -216 -189 -411 -360 -524 -51 -34 -193 -93
-223 -93 -17 0 -18 -34 -15 -692 2 -494 -1 -701 -9 -720 -6 -15 -36 -50 -66
-78 l-55 -51 -36 43 c-21 23 -58 65 -84 93 l-47 50 -1 677 0 676 -66 22 c-83
28 -169 76 -248 139 -236 190 -356 557 -317 971 47 495 282 993 601 1273 67
59 160 126 177 126 7 1 61 -34 119 -76z m244 -5050 c12 -15 115 -129 228 -252
114 -123 236 -256 271 -294 l64 -71 -23 -18 c-31 -26 -66 -14 -123 41 -64 60
-389 408 -460 491 l-56 65 32 33 c17 17 34 32 38 32 4 0 17 -12 29 -27z m-338
-480 c33 -32 75 -79 94 -104 l34 -47 0 -1013 c0 -1141 6 -1055 -77 -1113 -40
-28 -43 -28 -75 -14 -18 9 -43 19 -56 23 -12 3 -34 23 -50 42 l-27 36 -3 1073
-2 1072 47 51 c26 28 49 51 51 51 2 0 31 -26 64 -57z"/>
<path d="M7639 8610 c-44 -13 -77 -40 -96 -78 -17 -35 -18 -92 -17 -1164 l2
-1127 22 -37 c61 -98 206 -90 260 15 20 40 20 48 18 1170 -3 1122 -3 1130 -24
1158 -21 29 -97 74 -124 72 -8 0 -27 -4 -41 -9z"/>
<path d="M6999 8586 c-73 -50 -69 22 -69 -1214 0 -1058 1 -1109 19 -1148 22
-47 62 -80 111 -89 46 -8 117 28 147 74 l23 34 0 1126 c0 1052 -1 1128 -18
1161 -39 78 -141 105 -213 56z"/>
</g>
</svg>
